REM DIRINDEX 1\6,1\2\7,1\2\8,1\2\9,1\3\10,1\3\11,1\4\12,1\4\13,1\4\14,1\5\15,1\5\16,1\5\17
REM DIRNAME cjc041,folder01,folder02,folder03,folder04,folder05,folder06,folder07,folder08,folder09,folder10,folder11,folder12,folder13,folder14,folder15,folder16
TITLE ""
FILE "3Q_t2_0316-0331.mp3" MP3
  TRACK 01 AUDIO
    TITLE "7:cjc041_4362"
    INDEX 01 00:00:00
  TRACK 02 AUDIO
    TITLE "0:"
    INDEX 01 00:00:74
  TRACK 03 AUDIO
    TITLE "8:cjc041_4363"
    INDEX 01 00:01:46
  TRACK 04 AUDIO
    TITLE "0:"
    INDEX 01 00:04:27
  TRACK 05 AUDIO
    TITLE "9:cjc041_4364"
    INDEX 01 00:05:03
  TRACK 06 AUDIO
    TITLE "0:"
    INDEX 01 00:06:12
  TRACK 07 AUDIO
    TITLE "7:cjc041_4365"
    INDEX 01 00:07:66
  TRACK 08 AUDIO
    TITLE "0:"
    INDEX 01 00:09:06
  TRACK 09 AUDIO
    TITLE "8:cjc041_4366"
    INDEX 01 00:09:57
  TRACK 10 AUDIO
    TITLE "0:"
    INDEX 01 00:10:63
  TRACK 11 AUDIO
    TITLE "9:cjc041_4367"
    INDEX 01 00:11:48
  TRACK 12 AUDIO
    TITLE "0:"
    INDEX 01 00:12:63
  TRACK 13 AUDIO
    TITLE "7:cjc041_4368"
    INDEX 01 00:14:39
  TRACK 14 AUDIO
    TITLE "0:"
    INDEX 01 00:15:54
  TRACK 15 AUDIO
    TITLE "8:cjc041_4369"
    INDEX 01 00:16:30
  TRACK 16 AUDIO
    TITLE "0:"
    INDEX 01 00:19:58
  TRACK 17 AUDIO
    TITLE "9:cjc041_4370"
    INDEX 01 00:20:37
  TRACK 18 AUDIO
    TITLE "0:"
    INDEX 01 00:21:51
  TRACK 19 AUDIO
    TITLE "7:cjc041_4371"
    INDEX 01 00:23:30
  TRACK 20 AUDIO
    TITLE "0:"
    INDEX 01 00:24:45
  TRACK 21 AUDIO
    TITLE "8:cjc041_4372"
    INDEX 01 00:25:23
  TRACK 22 AUDIO
    TITLE "0:"
    INDEX 01 00:28:17
  TRACK 23 AUDIO
    TITLE "9:cjc041_4373"
    INDEX 01 00:28:66
  TRACK 24 AUDIO
    TITLE "0:"
    INDEX 01 00:30:08
  TRACK 25 AUDIO
    TITLE "7:cjc041_4374"
    INDEX 01 00:31:65
  TRACK 26 AUDIO
    TITLE "0:"
    INDEX 01 00:33:03
  TRACK 27 AUDIO
    TITLE "8:cjc041_4375"
    INDEX 01 00:33:50
  TRACK 28 AUDIO
    TITLE "0:"
    INDEX 01 00:35:12
  TRACK 29 AUDIO
    TITLE "9:cjc041_4376"
    INDEX 01 00:35:66
  TRACK 30 AUDIO
    TITLE "0:"
    INDEX 01 00:36:74
  TRACK 31 AUDIO
    TITLE "7:cjc041_4377"
    INDEX 01 00:38:53
  TRACK 32 AUDIO
    TITLE "0:"
    INDEX 01 00:40:09
  TRACK 33 AUDIO
    TITLE "8:cjc041_4378"
    INDEX 01 00:40:54
  TRACK 34 AUDIO
    TITLE "0:"
    INDEX 01 00:41:65
  TRACK 35 AUDIO
    TITLE "9:cjc041_4379"
    INDEX 01 00:42:45
  TRACK 36 AUDIO
    TITLE "0:"
    INDEX 01 00:44:01
  TRACK 37 AUDIO
    TITLE "7:cjc041_4380"
    INDEX 01 00:45:55
  TRACK 38 AUDIO
    TITLE "0:"
    INDEX 01 00:46:60
  TRACK 39 AUDIO
    TITLE "8:cjc041_4381"
    INDEX 01 00:47:38
  TRACK 40 AUDIO
    TITLE "0:"
    INDEX 01 00:48:65
  TRACK 41 AUDIO
    TITLE "9:cjc041_4382"
    INDEX 01 00:49:45
  TRACK 42 AUDIO
    TITLE "0:"
    INDEX 01 00:50:50
  TRACK 43 AUDIO
    TITLE "7:cjc041_4383"
    INDEX 01 00:52:32
  TRACK 44 AUDIO
    TITLE "0:"
    INDEX 01 00:53:53
  TRACK 45 AUDIO
    TITLE "8:cjc041_4384"
    INDEX 01 00:54:29
  TRACK 46 AUDIO
    TITLE "0:"
    INDEX 01 00:56:18
  TRACK 47 AUDIO
    TITLE "9:cjc041_4385"
    INDEX 01 00:56:72
  TRACK 48 AUDIO
    TITLE "0:"
    INDEX 01 00:58:24
  TRACK 49 AUDIO
    TITLE "7:cjc041_4386"
    INDEX 01 01:00:06
  TRACK 50 AUDIO
    TITLE "0:"
    INDEX 01 01:01:29
  TRACK 51 AUDIO
    TITLE "8:cjc041_4387"
    INDEX 01 01:02:10
  TRACK 52 AUDIO
    TITLE "0:"
    INDEX 01 01:05:17
  TRACK 53 AUDIO
    TITLE "9:cjc041_4388"
    INDEX 01 01:05:73
  TRACK 54 AUDIO
    TITLE "0:"
    INDEX 01 01:07:23
  TRACK 55 AUDIO
    TITLE "7:cjc041_4389"
    INDEX 01 01:08:72
  TRACK 56 AUDIO
    TITLE "0:"
    INDEX 01 01:10:14
  TRACK 57 AUDIO
    TITLE "8:cjc041_4390"
    INDEX 01 01:10:67
  TRACK 58 AUDIO
    TITLE "0:"
    INDEX 01 01:13:47
  TRACK 59 AUDIO
    TITLE "9:cjc041_4391"
    INDEX 01 01:14:25
  TRACK 60 AUDIO
    TITLE "0:"
    INDEX 01 01:15:44
  TRACK 61 AUDIO
    TITLE "7:cjc041_4392"
    INDEX 01 01:17:28
  TRACK 62 AUDIO
    TITLE "0:"
    INDEX 01 01:18:45
  TRACK 63 AUDIO
    TITLE "8:cjc041_4393"
    INDEX 01 01:19:25
  TRACK 64 AUDIO
    TITLE "0:"
    INDEX 01 01:22:66
  TRACK 65 AUDIO
    TITLE "9:cjc041_4394"
    INDEX 01 01:23:48
  TRACK 66 AUDIO
    TITLE "0:"
    INDEX 01 01:24:65
  TRACK 67 AUDIO
    TITLE "7:cjc041_4395"
    INDEX 01 01:26:40
  TRACK 68 AUDIO
    TITLE "0:"
    INDEX 01 01:27:61
  TRACK 69 AUDIO
    TITLE "8:cjc041_4396"
    INDEX 01 01:28:35
  TRACK 70 AUDIO
    TITLE "0:"
    INDEX 01 01:29:64
  TRACK 71 AUDIO
    TITLE "9:cjc041_4397"
    INDEX 01 01:30:42
  TRACK 72 AUDIO
    TITLE "0:"
    INDEX 01 01:31:65
  TRACK 73 AUDIO
    TITLE "7:cjc041_4398"
    INDEX 01 01:33:42
  TRACK 74 AUDIO
    TITLE "0:"
    INDEX 01 01:34:42
  TRACK 75 AUDIO
    TITLE "8:cjc041_4399"
    INDEX 01 01:35:20
  TRACK 76 AUDIO
    TITLE "0:"
    INDEX 01 01:36:39
  TRACK 77 AUDIO
    TITLE "9:cjc041_4400"
    INDEX 01 01:37:21
  TRACK 78 AUDIO
    TITLE "0:"
    INDEX 01 01:38:24
  TRACK 79 AUDIO
    TITLE "7:cjc041_4401"
    INDEX 01 01:40:05
  TRACK 80 AUDIO
    TITLE "0:"
    INDEX 01 01:41:12
  TRACK 81 AUDIO
    TITLE "8:cjc041_4402"
    INDEX 01 01:41:65
  TRACK 82 AUDIO
    TITLE "0:"
    INDEX 01 01:42:67
  TRACK 83 AUDIO
    TITLE "9:cjc041_4403"
    INDEX 01 01:43:49
  TRACK 84 AUDIO
    TITLE "0:"
    INDEX 01 01:44:58
  TRACK 85 AUDIO
    TITLE "7:cjc041_4404"
    INDEX 01 01:46:35
  TRACK 86 AUDIO
    TITLE "0:"
    INDEX 01 01:47:54
  TRACK 87 AUDIO
    TITLE "8:cjc041_4405"
    INDEX 01 01:48:32
  TRACK 88 AUDIO
    TITLE "0:"
    INDEX 01 01:50:09
  TRACK 89 AUDIO
    TITLE "9:cjc041_4406"
    INDEX 01 01:50:64
  TRACK 90 AUDIO
    TITLE "0:"
    INDEX 01 01:52:10
  TRACK 91 AUDIO
    TITLE "7:cjc041_4407"
    INDEX 01 01:53:63
  TRACK 92 AUDIO
    TITLE "0:"
    INDEX 01 01:54:66
  TRACK 93 AUDIO
    TITLE "8:cjc041_4408"
    INDEX 01 01:55:48
  TRACK 94 AUDIO
    TITLE "0:"
    INDEX 01 01:56:69
  TRACK 95 AUDIO
    TITLE "9:cjc041_4409"
    INDEX 01 01:57:49
  TRACK 96 AUDIO
    TITLE "0:"
    INDEX 01 01:58:58
